<?xml version="1.0" standalone="no"?>
<!DOCTYPE svg PUBLIC "-//W3C//DTD SVG 20010904//EN"
 "http://www.w3.org/TR/2001/REC-SVG-20010904/DTD/svg10.dtd">
<svg version="1.0" xmlns="http://www.w3.org/2000/svg"
 width="75.000000pt" height="75.000000pt" viewBox="0 0 75.000000 75.000000"
 preserveAspectRatio="xMidYMid meet">
<metadata>
Created by potrace 1.14, written by Peter Selinger 2001-2017
</metadata>
<g transform="translate(0.000000,75.000000) scale(0.100000,-0.100000)"
fill="#000000" stroke="none">
<path d="M275 737 c-110 -37 -196 -112 -242 -212 -24 -51 -28 -73 -28 -150 0
-78 4 -98 28 -151 36 -77 113 -154 192 -191 51 -24 73 -28 150 -28 78 0 98 4
151 28 77 36 154 113 191 192 24 51 28 73 28 150 0 78 -4 98 -28 151 -36 77
-114 155 -190 189 -70 32 -189 42 -252 22z m189 -216 c14 -16 16 -40 14 -175
l-3 -157 -50 45 -50 44 -52 -51 -53 -51 0 160 c0 202 1 204 104 204 58 0 76
-4 90 -19z"/>
</g>
</svg>
